# xmcd
#
# Track frame offsets:
#	150
#	19940
#	29336
#	42129
#	56304
#	68813
#	82037
#	93827
#	105977
#	118452
#	130420
#	144325
#	156832
#	169715
#	180845
#	194825
#
# Disc length: 2762 seconds
#
# Revision: 1
# Processed by: cddbd v1.5.1PL0 Copyright (c) Steve Scherf et al.
# Submitted via: audiograbber 1.83.01
#
DISCID=d40ac810
DTITLE=Karaoke - MH009
DYEAR=1900
DGENRE=Female Classic Country
TTITLE0=Judds, The - Grandpa (Tell Me 'Bout The Good Old Days)
TTITLE1=Cline, Patsy - Walkin' After Midnight
TTITLE2=Wynette, Tammy - Stand By Your Man
TTITLE3=Franklin, Aretha  - Respect
TTITLE4=West, Shelly - Jose Cuervo
TTITLE5=Cline, Patsy - I Fall To Pieces
TTITLE6=Davis, Skeeter - End Of The World, The
TTITLE7=Wells, Kitty - It Wasn't God Who Made Honky Tonk Angels
TTITLE8=Smith, Sammi - Help Me Make It Through the Night
TTITLE9=Cline, Patsy - Sweet Dreams (Of You)
TTITLE10=Anderson, Lynn - Rose Garden
TTITLE11=Parton, Dolly - Jolene
TTITLE12=Cline, Patsy - Crazy
TTITLE13=Smith, Connie - Once a Day
TTITLE14=Lynn, Loretta - Coal Miner's Daughter
TTITLE15=Gayle, Crystal - Don't It Make My Brown Eyes Blue
EXTD=
EXTT0=
EXTT1=
EXTT2=
EXTT3=
EXTT4=
EXTT5=
EXTT6=
EXTT7=
EXTT8=
EXTT9=
EXTT10=
EXTT11=
EXTT12=
EXTT13=
EXTT14=
EXTT15=
PLAYORDER=
